<svg width="140" height="256" viewBox="0 0 140 256" fill="none" xmlns="http://www.w3.org/2000/svg">
<path d="M2.10352 1H137.119C137.459 1.00003 137.555 1.09514 137.6 1.15039C137.678 1.24823 137.802 1.50933 137.802 2.10352V49.2109C137.802 49.6176 137.701 49.7399 137.674 49.7666C137.647 49.7936 137.525 49.8935 137.119 49.8936H49.8936V117.509H137.119C137.526 117.509 137.647 117.61 137.674 117.637C137.701 117.663 137.802 117.785 137.802 118.191V118.2L138.222 165.729C138.22 166.128 138.121 166.249 138.095 166.275C138.068 166.302 137.946 166.403 137.54 166.403H49.8936V242.01H137.54C137.88 242.01 137.976 242.105 138.021 242.16C138.099 242.258 138.222 242.519 138.222 243.113V291.062C138.222 291.468 138.122 291.59 138.095 291.617C138.068 291.644 137.946 291.745 137.54 291.745H1.68262C1.34263 291.745 1.24537 291.65 1.20117 291.595C1.12298 291.497 1.00024 291.236 1 290.644L1.4209 1.68359V1.68262C1.4209 1.2776 1.52063 1.15532 1.54785 1.12793C1.57127 1.10451 1.6676 1.02357 1.96387 1.00391L2.10352 1Z" stroke="white" stroke-width="2"/>
</svg>
