<svg width="166" height="260" viewBox="0 0 166 260" fill="none" xmlns="http://www.w3.org/2000/svg">
<path d="M82.8604 1C97.8265 1.00001 111.384 4.73922 123.557 12.209C135.752 19.6923 145.449 29.6653 152.657 42.1406L152.661 42.1475L152.665 42.1553C160.138 54.6104 163.879 68.4511 163.879 83.7012V83.7051L164.3 217.038C164.299 232.287 160.559 246.271 153.081 259.011L153.077 259.017C145.871 271.488 136.036 281.603 123.557 289.369C111.384 296.839 97.8264 300.578 82.8604 300.578C68.3619 300.578 55.0504 297.069 42.9062 290.054L41.7344 289.363C29.5386 281.598 19.7009 271.48 12.2139 259.002C4.73969 246.265 1.00051 232.284 1 217.038L1.4209 83.7051V83.7012C1.42094 68.9206 4.80348 55.4646 11.5586 43.3125L12.2227 42.1406C19.7082 29.6698 29.6825 19.6975 42.1553 12.2139C54.6165 4.73722 68.1782 1 82.8604 1ZM115.406 217.032L114.985 83.6982C114.985 74.213 111.958 66.1172 105.892 59.4727C99.8078 52.8094 92.1056 49.4737 82.8604 49.4736C74.1671 49.4736 66.6787 52.6094 60.4443 58.8428L59.8604 59.4404C53.4858 65.8151 50.3145 73.9295 50.3145 83.7012V217.035C50.3145 226.535 53.4906 234.769 59.8311 241.686L59.8379 241.693L59.8457 241.701C66.1976 248.342 73.8868 251.684 82.8604 251.684C91.5778 251.684 99.1268 248.181 105.467 241.266L105.468 241.267C112.069 234.091 115.406 226.003 115.406 217.035V217.032Z" stroke="white" stroke-width="2"/>
</svg>
