<svg width="159" height="256" viewBox="0 0 159 256" fill="none" xmlns="http://www.w3.org/2000/svg">
<path d="M1.4209 289.799L1 3.36523C1 2.39775 1.24072 1.85499 1.54785 1.54785C1.85499 1.24072 2.39775 1 3.36523 1H40.5605L111.384 166.114L113.303 165.708L111.2 3.36523C111.2 2.43045 111.457 1.90284 111.811 1.58887C112.186 1.25498 112.851 1.00002 113.985 1H155.626C156.223 1.00001 156.526 1.18411 156.719 1.44141C156.952 1.75287 157.149 2.33996 157.149 3.36523V3.36621L157.57 290.223C157.57 290.948 157.415 291.307 157.276 291.474C157.167 291.605 156.961 291.745 156.467 291.745H120.089L47.5928 137.535L45.6875 137.979L48.6318 289.38C48.6318 290.315 48.3746 290.842 48.0215 291.156C47.6459 291.49 46.9814 291.745 45.8467 291.745H3.78516C2.78754 291.745 2.22558 291.523 1.91992 291.256C1.63995 291.011 1.42094 290.59 1.4209 289.801V289.799Z" stroke="white" stroke-width="2"/>
</svg>
