<svg width="168" height="256" viewBox="0 0 168 256" fill="none" xmlns="http://www.w3.org/2000/svg">
<path d="M54.2588 1H115.247C115.638 1 115.857 1.09512 115.989 1.20117C116.123 1.3078 116.271 1.50768 116.373 1.90234L166.418 290.812L166.42 290.825L166.423 290.838C166.539 291.419 166.422 291.583 166.412 291.595C166.407 291.601 166.288 291.745 165.721 291.745H119.033C118.7 291.745 118.511 291.649 118.373 291.512C118.213 291.352 118.032 291.041 117.914 290.464L113.292 259.788L113.164 258.938H54.2393L54.1113 259.788L49.4902 290.453C49.3724 291.037 49.1914 291.35 49.0303 291.512C48.8926 291.649 48.7037 291.745 48.3701 291.745H1.68262C1.34263 291.745 1.24537 291.65 1.20117 291.595C1.12641 291.501 1.01219 291.259 1.00195 290.72L53.1309 1.9043C53.2333 1.50804 53.3831 1.308 53.5166 1.20117C53.6493 1.0951 53.8673 1 54.2588 1ZM85.1094 81.0176L83.1279 81.0703L81.4473 96.6074L62.5244 214.773L62.3389 215.932H105.047L104.88 214.787L87.6348 96.5957L87.6328 96.5801L85.1094 81.0176Z" stroke="white" stroke-width="2"/>
</svg>
