<svg width="165" height="260" viewBox="0 0 165 260" fill="none" xmlns="http://www.w3.org/2000/svg">
<path d="M82.0195 1C97.2697 1.00008 110.967 4.74101 123.137 12.209L123.147 12.2158L123.159 12.2227C135.626 19.4255 145.454 29.2533 152.657 41.7197C159.853 54.1741 163.459 68.1601 163.459 83.7012V103.05C163.459 103.389 163.364 103.486 163.309 103.53C163.211 103.609 162.95 103.732 162.355 103.732H115.247C114.841 103.732 114.719 103.631 114.692 103.604C114.666 103.578 114.564 103.456 114.564 103.05V87.0664C114.564 76.5439 111.608 67.6952 105.648 60.5898L105.062 59.9072C98.9908 52.6879 91.2872 49.0529 82.0195 49.0527C73.5746 49.0527 66.0335 52.5602 59.4258 59.4551L59.418 59.4639L59.4102 59.4717C53.0755 66.3822 49.8936 74.4733 49.8936 83.7012V217.035C49.8936 226.535 53.0697 234.769 59.4102 241.686L59.417 241.693L59.4248 241.701C65.7695 248.334 73.3164 251.684 82.0195 251.684C91.2567 251.683 98.9519 248.352 105.033 241.7L105.034 241.701C111.394 235.052 114.564 226.807 114.564 217.035V195.425H84.1221C83.5754 195.425 83.3488 195.289 83.252 195.192C83.1551 195.096 83.0196 194.869 83.0195 194.322V147.214C83.0195 146.667 83.1551 146.441 83.252 146.344C83.3488 146.247 83.5752 146.11 84.1221 146.11H162.776C163.116 146.11 163.213 146.205 163.257 146.261C163.335 146.359 163.459 146.62 163.459 147.214V217.035C163.459 232.569 159.716 246.693 152.24 259.431L152.236 259.437C145.028 271.912 135.332 281.886 123.137 289.369C110.967 296.837 97.2697 300.578 82.0195 300.578C67.0533 300.578 53.4954 296.839 41.3223 289.369C29.1282 281.886 19.2904 271.913 11.8018 259.437C4.60438 246.699 1.00003 232.573 1 217.035V83.7012C1.00005 68.7278 4.60163 55.0206 11.8008 42.5605C19.2911 29.8014 29.13 19.6891 41.3213 12.208C53.7803 4.73452 67.3405 1 82.0195 1Z" stroke="white" stroke-width="2"/>
</svg>
