<svg width="52" height="256" viewBox="0 0 52 256" fill="none" xmlns="http://www.w3.org/2000/svg">
<path d="M2.10352 1H49.2119C49.6182 1.00007 49.7399 1.10122 49.7666 1.12793C49.7938 1.1553 49.8936 1.27755 49.8936 1.68262V1.68359L50.3145 290.644C50.3142 291.236 50.1915 291.497 50.1133 291.595C50.0691 291.65 49.9718 291.745 49.6318 291.745H2.10352C1.55664 291.745 1.32925 291.609 1.23242 291.512C1.13572 291.415 1.00029 291.188 1 290.644L1.4209 1.68359V1.68262C1.4209 1.27594 1.5221 1.15465 1.54883 1.12793C1.57582 1.10101 1.69752 1 2.10352 1Z" stroke="white" stroke-width="2"/>
</svg>
