<svg width="172" height="256" viewBox="0 0 172 256" fill="none" xmlns="http://www.w3.org/2000/svg">
<path d="M2.52344 1H87.4873C102.453 1.00005 116.155 4.73898 128.613 12.2139L128.624 12.2207L128.636 12.2266C141.385 19.4327 151.493 29.2655 158.975 41.7344L158.979 41.7432C166.446 53.9104 170.188 67.7469 170.188 83.2812C170.188 93.5527 168.663 102.824 165.627 111.107C162.568 119.171 158.962 126.1 154.816 131.904C150.636 137.476 146.907 141.611 143.629 144.343L142.831 145.008L143.526 145.779C158.502 162.419 165.982 181.95 165.982 204.417V204.422L166.403 290.646C166.403 291.19 166.266 291.415 166.17 291.512C166.073 291.609 165.847 291.745 165.3 291.745H117.771C117.306 291.745 117.14 291.652 117.109 291.629C117.108 291.628 117.107 291.628 117.106 291.627C117.102 291.617 117.089 291.575 117.089 291.483V204.417C117.089 194.063 113.342 185.127 105.886 177.659H105.887C98.6862 169.883 89.7269 165.983 79.0752 165.982H50.3184L50.3145 166.979L49.8936 290.639V290.642C49.8936 291.236 49.7707 291.497 49.6924 291.595C49.6481 291.65 49.5512 291.745 49.2119 291.745H1.68262C1.34263 291.745 1.24538 291.65 1.20117 291.595C1.12302 291.497 1.00038 291.237 1 290.645L1.84082 1.68555V1.68262C1.84082 1.27696 1.94172 1.15506 1.96875 1.12793C1.99547 1.10121 2.11695 1.00004 2.52344 1ZM50.3145 117.509H87.4873C96.4574 117.509 104.411 114.17 111.312 107.557C118.237 100.92 121.715 92.8093 121.715 83.2812C121.715 74.0308 118.235 66.0673 111.327 59.4404H111.328C104.695 52.8071 96.7303 49.4737 87.4873 49.4736H50.3145V117.509Z" stroke="white" stroke-width="2"/>
</svg>
