<svg width="14" height="23" viewBox="0 0 14 23" fill="none" xmlns="http://www.w3.org/2000/svg">
<path d="M0.128001 22.272C0.0426679 22.272 0 22.2187 0 22.112L0.0640001 0.128C0.0640001 0.0426668 0.106667 0 0.192 0H6.656C7.808 0 8.864 0.288 9.824 0.864C10.8053 1.41867 11.584 2.176 12.16 3.136C12.736 4.07467 13.024 5.14133 13.024 6.336C13.024 7.12533 12.9067 7.84 12.672 8.48C12.4373 9.09867 12.16 9.632 11.84 10.08C11.52 10.5067 11.232 10.8267 10.976 11.04C12.128 12.32 12.704 13.824 12.704 15.552L12.736 22.112C12.736 22.2187 12.6827 22.272 12.576 22.272H8.96C8.87467 22.272 8.832 22.24 8.832 22.176V15.552C8.832 14.784 8.55467 14.1227 8 13.568C7.46667 12.992 6.80534 12.704 6.016 12.704H3.904L3.872 22.112C3.872 22.2187 3.82933 22.272 3.744 22.272H0.128001ZM3.904 8.864H6.656C7.31733 8.864 7.904 8.61867 8.416 8.128C8.928 7.63733 9.184 7.04 9.184 6.336C9.184 5.65333 8.928 5.06667 8.416 4.576C7.92533 4.08533 7.33867 3.84 6.656 3.84H3.904V8.864Z" fill="white"/>
</svg>
