<svg width="13" height="23" viewBox="0 0 13 23" fill="none" xmlns="http://www.w3.org/2000/svg">
<path d="M0 22.112L3.968 0.128C3.98934 0.0426668 4.04267 0 4.128 0H8.768C8.85333 0 8.90667 0.0426668 8.928 0.128L12.736 22.112C12.7573 22.2187 12.7147 22.272 12.608 22.272H9.056C8.97067 22.272 8.91733 22.2187 8.896 22.112L8.544 19.776H4.192L3.84 22.112C3.81866 22.2187 3.76533 22.272 3.68 22.272H0.127998C0.042665 22.272 0 22.2187 0 22.112ZM4.832 16.352H7.904L6.592 7.36L6.4 6.176L6.272 7.36L4.832 16.352Z" fill="white"/>
</svg>
