<svg width="13" height="23" viewBox="0 0 13 23" fill="none" xmlns="http://www.w3.org/2000/svg">
<path d="M6.24 22.944C5.088 22.944 4.04267 22.656 3.104 22.08C2.16533 21.504 1.408 20.736 0.832001 19.776C0.277334 18.7947 0 17.7067 0 16.512V6.368C0 5.216 0.277334 4.16 0.832001 3.2C1.408 2.21867 2.16533 1.44 3.104 0.864C4.064 0.288 5.10933 0 6.24 0C7.41334 0 8.46933 0.288 9.408 0.864C10.368 1.41867 11.1253 2.176 11.68 3.136C12.2347 4.096 12.512 5.17333 12.512 6.368V7.84C12.512 7.92533 12.4587 7.968 12.352 7.968H8.768C8.68267 7.968 8.64 7.92533 8.64 7.84V6.624C8.64 5.81333 8.40533 5.14133 7.936 4.608C7.488 4.07467 6.92267 3.808 6.24 3.808C5.62134 3.808 5.06667 4.064 4.576 4.576C4.10667 5.088 3.872 5.68533 3.872 6.368V16.512C3.872 17.216 4.10667 17.824 4.576 18.336C5.04533 18.8267 5.6 19.072 6.24 19.072C6.92267 19.072 7.488 18.8267 7.936 18.336C8.40533 17.8453 8.64 17.2373 8.64 16.512V14.944H6.4C6.29333 14.944 6.24 14.8907 6.24 14.784V11.2C6.24 11.0933 6.29333 11.04 6.4 11.04H12.384C12.4693 11.04 12.512 11.0933 12.512 11.2V16.512C12.512 17.7067 12.224 18.7947 11.648 19.776C11.0933 20.736 10.3467 21.504 9.408 22.08C8.46933 22.656 7.41334 22.944 6.24 22.944Z" fill="white"/>
</svg>
