<svg width="13" height="23" viewBox="0 0 13 23" fill="none" xmlns="http://www.w3.org/2000/svg">
<path d="M6.304 22.944C5.152 22.944 4.096 22.656 3.136 22.08C2.19733 21.4827 1.44 20.704 0.864 19.744C0.288 18.7627 0 17.6853 0 16.512L0.032 6.368C0.032 5.19467 0.309333 4.128 0.864 3.168C1.44 2.208 2.208 1.44 3.168 0.864C4.128 0.288 5.17333 0 6.304 0C7.456 0 8.50133 0.288 9.44 0.864C10.3787 1.44 11.1253 2.208 11.68 3.168C12.256 4.128 12.544 5.19467 12.544 6.368L12.576 16.512C12.576 17.6853 12.288 18.7627 11.712 19.744C11.1573 20.704 10.4 21.4827 9.44 22.08C8.50133 22.656 7.456 22.944 6.304 22.944ZM6.304 19.072C6.944 19.072 7.49867 18.816 7.968 18.304C8.45867 17.7707 8.704 17.1733 8.704 16.512L8.672 6.368C8.672 5.664 8.448 5.06667 8 4.576C7.552 4.08533 6.98667 3.84 6.304 3.84C5.64267 3.84 5.07733 4.08533 4.608 4.576C4.13867 5.04533 3.904 5.64267 3.904 6.368V16.512C3.904 17.216 4.13867 17.824 4.608 18.336C5.07733 18.8267 5.64267 19.072 6.304 19.072Z" fill="white"/>
</svg>
