<svg width="11" height="23" viewBox="0 0 11 23" fill="none" xmlns="http://www.w3.org/2000/svg">
<path d="M0.127998 22.272C0.042665 22.272 0 22.2187 0 22.112L0.0319977 0.128C0.0319977 0.0426668 0.0746703 0 0.160004 0H10.432C10.5173 0 10.56 0.0533333 10.56 0.16V3.744C10.56 3.82933 10.5173 3.872 10.432 3.872H3.872V8.864H10.432C10.5173 8.864 10.56 8.90667 10.56 8.992L10.592 12.608C10.592 12.6933 10.5493 12.736 10.464 12.736H3.872V18.336H10.464C10.5493 18.336 10.592 18.3893 10.592 18.496V22.144C10.592 22.2293 10.5493 22.272 10.464 22.272H0.127998Z" fill="white"/>
</svg>
